<svg xmlns="http://www.w3.org/2000/svg" viewBox="0 0 20 20"><title>clock</title><path fill="#07bbc8" class="cls-1" d="M10 2.66a7.41 7.41 0 0 0-5.23 12.66l-.64 2.84c0 .18.06.25.21.15l2.49-1.54a7.43 7.43 0 0 0 6.34 0l2.49 1.53c.16.1.25 0 .21-.15l-.64-2.83a7.36 7.36 0 0 0 2.18-5.25A7.41 7.41 0 0 0 10 2.66zm0 13.14a5.73 5.73 0 1 1 5.73-5.73A5.74 5.74 0 0 1 10 15.81z"/><path fill="#07bbc8" class="cls-1" d="M6.08 2.63a2.51 2.51 0 1 0-3.51 3.51 8.48 8.48 0 0 1 3.51-3.51zm9.83-.97a2.5 2.5 0 0 0-2 1 8.49 8.49 0 0 1 3.52 3.52 2.51 2.51 0 0 0-1.54-4.48zm-2.69 8.4H10V6.85a.34.34 0 0 0-.34-.34H9a.34.34 0 0 0-.34.34v4.22a.34.34 0 0 0 .34.34h4.21a.34.34 0 0 0 .34-.34v-.67a.34.34 0 0 0-.33-.34z"/></svg>